<svg width="24" height="24" viewBox="0 0 24 24" fill="none" xmlns="http://www.w3.org/2000/svg">
<g clip-path="url(#clip0_316_199)">
<path d="M17.5 2L16.75 4.75L14 5.5V6.5L16.75 7.25L17.5 10H18.5L19.25 7.25L22 6.5V5.5L19.25 4.75L18.5 2H17.5Z" fill="white"/>
<path d="M9.6 6C9.59976 7.66877 10.0966 9.29979 11.0271 10.6851C11.9576 12.0703 13.2796 13.147 14.8245 13.7779C16.3695 14.4087 18.0673 14.5651 19.7015 14.2271C21.3356 13.8891 22.8321 13.072 24 11.88V12C24 18.6276 18.6276 24 12 24C5.3724 24 0 18.6276 0 12C0 5.3724 5.3724 0 12 0H12.12C11.3209 0.781391 10.6863 1.71481 10.2535 2.74526C9.82068 3.77571 9.59849 4.88235 9.6 6ZM2.4 12C2.39913 14.142 3.11463 16.2227 4.43267 17.9112C5.75071 19.5996 7.59556 20.7987 9.67369 21.3178C11.7518 21.8368 13.9439 21.646 15.901 20.7756C17.8582 19.9052 19.468 18.4052 20.4744 16.5144C18.6833 16.9364 16.8141 16.8937 15.0442 16.3905C13.2742 15.8872 11.6622 14.9401 10.3611 13.6389C9.0599 12.3378 8.11278 10.7258 7.60954 8.95581C7.1063 7.18586 7.06364 5.31667 7.4856 3.5256C5.94918 4.34427 4.6643 5.56532 3.76848 7.05807C2.87266 8.55083 2.39962 10.2591 2.4 12Z" fill="white"/>
</g>
<defs>
<clipPath id="clip0_316_199">
<rect width="24" height="24" fill="white"/>
</clipPath>
</defs>
</svg>
