<svg width="24" height="24" viewBox="0 0 24 24" fill="none" xmlns="http://www.w3.org/2000/svg">
<path fill-rule="evenodd" clip-rule="evenodd" d="M11.2953 0.300821C11.4823 0.108196 11.7357 0 12 0C12.2643 0 12.5177 0.108196 12.7047 0.300821L20.6826 8.5297C20.7806 8.62387 20.8592 8.73743 20.9137 8.86361C20.9682 8.98978 20.9975 9.12599 20.9998 9.2641C21.0022 9.40221 20.9776 9.5394 20.9274 9.66748C20.8773 9.79556 20.8026 9.91191 20.7079 10.0096C20.6132 10.1073 20.5004 10.1843 20.3762 10.236C20.2521 10.2877 20.1191 10.3131 19.9852 10.3107C19.8513 10.3083 19.7192 10.278 19.5969 10.2218C19.4746 10.1656 19.3645 10.0845 19.2732 9.98347L12.9972 3.51008V22.9714C12.9972 23.2442 12.8922 23.5058 12.7052 23.6987C12.5181 23.8916 12.2645 24 12 24C11.7355 24 11.4819 23.8916 11.2948 23.6987C11.1078 23.5058 11.0028 23.2442 11.0028 22.9714V3.51008L4.72683 9.98347C4.63553 10.0845 4.52543 10.1656 4.40311 10.2218C4.28078 10.278 4.14873 10.3083 4.01483 10.3107C3.88093 10.3131 3.74793 10.2877 3.62375 10.236C3.49958 10.1843 3.38678 10.1073 3.29208 10.0096C3.19739 9.91191 3.12273 9.79556 3.07258 9.66748C3.02242 9.5394 2.99779 9.40221 3.00016 9.2641C3.00252 9.12599 3.03183 8.98978 3.08633 8.86361C3.14083 8.73743 3.21942 8.62387 3.3174 8.5297L11.2953 0.300821Z" fill="white"/>
</svg>
