<svg width="24" height="24" viewBox="0 0 24 24" fill="none" xmlns="http://www.w3.org/2000/svg">
<g clip-path="url(#clip0_316_197)">
<path d="M12 18.012C15.312 18.012 18.012 15.312 18.012 12C18.012 8.688 15.312 5.988 12 5.988C8.688 5.988 5.988 8.688 5.988 12C5.988 15.312 8.688 18.012 12 18.012ZM12 8.4C13.992 8.4 15.612 10.02 15.612 12.012C15.612 14.004 13.992 15.624 12 15.624C10.008 15.624 8.388 14.004 8.388 12.012C8.388 10.02 10.008 8.4 12 8.4ZM13.2 20.4H10.8V24H13.2V20.4ZM13.2 0H10.8V3.6H13.2V0ZM0 10.8H3.6V13.2H0V10.8ZM20.4 10.8H24V13.2H20.4V10.8ZM2.664 19.632L3.516 20.484L4.368 21.336L5.64 20.064L6.912 18.792L6.06 17.94L5.208 17.088L3.936 18.36L2.664 19.632ZM21.336 4.368L20.484 3.516L19.632 2.664L18.36 3.936L17.088 5.208L17.94 6.06L18.792 6.912L20.064 5.64L21.336 4.368ZM6.912 5.208L5.64 3.936L4.368 2.664L3.516 3.516L2.664 4.368L3.936 5.64L5.208 6.912L6.06 6.06L6.912 5.208ZM17.088 18.792L18.36 20.064L19.632 21.336L20.484 20.484L21.336 19.632L20.064 18.36L18.792 17.088L17.94 17.94L17.088 18.792Z" fill="white"/>
</g>
<defs>
<clipPath id="clip0_316_197">
<rect width="24" height="24" fill="white"/>
</clipPath>
</defs>
</svg>
