<svg width="24" height="24" viewBox="0 0 24 24" fill="none" xmlns="http://www.w3.org/2000/svg">
<path d="M12 0C13.023 0 14.0041 0.399247 14.7274 1.10991C15.4508 1.82058 15.8571 2.78444 15.8571 3.78947V11.3684C15.8571 12.3735 15.4508 13.3373 14.7274 14.048C14.0041 14.7586 13.023 15.1579 12 15.1579C10.977 15.1579 9.99594 14.7586 9.27259 14.048C8.54923 13.3373 8.14286 12.3735 8.14286 11.3684V3.78947C8.14286 2.78444 8.54923 1.82058 9.27259 1.10991C9.99594 0.399247 10.977 0 12 0ZM21 11.3684C21 15.8274 17.6443 19.5032 13.2857 20.1221V24H10.7143V20.1221C6.35571 19.5032 3 15.8274 3 11.3684H5.57143C5.57143 13.0435 6.24872 14.6499 7.45431 15.8344C8.6599 17.0188 10.295 17.6842 12 17.6842C13.705 17.6842 15.3401 17.0188 16.5457 15.8344C17.7513 14.6499 18.4286 13.0435 18.4286 11.3684H21Z" fill="white"/>
</svg>
