<svg width="24" height="24" viewBox="0 0 24 24" fill="none" xmlns="http://www.w3.org/2000/svg">
<g clip-path="url(#clip0_319_216)">
<path d="M21.4337 9.07286L21.026 8.84565L20.9002 8.77437C20.5965 8.59213 20.3407 8.34013 20.1539 8.03927C20.1339 8.0092 20.1161 7.9769 20.0804 7.91453C19.8403 7.52908 19.7237 7.07944 19.7463 6.62588L19.753 6.15252C19.7664 5.39514 19.773 5.01423 19.6661 4.67341C19.5715 4.37017 19.4132 4.09067 19.2017 3.85367C18.9633 3.58636 18.6325 3.39479 17.9698 3.01387L17.4196 2.69644C16.7602 2.31664 16.4295 2.12619 16.0786 2.05379C15.7686 1.98965 15.4486 1.99231 15.1397 2.06159C14.7911 2.13955 14.4647 2.33558 13.8132 2.7254L13.8098 2.72763L13.4156 2.96264C13.3532 3.00051 13.3209 3.01833 13.2897 3.03615C12.9801 3.20879 12.6348 3.30346 12.2795 3.31459C12.2438 3.31682 12.2071 3.31682 12.1347 3.31682L11.9899 3.31571C11.6345 3.30439 11.287 3.20815 10.9764 3.03504C10.9452 3.01833 10.9151 2.99939 10.8527 2.96153L10.4551 2.72318C9.79909 2.3289 9.47053 2.13287 9.11968 2.05379C8.80967 1.9844 8.48839 1.98212 8.17742 2.04711C7.82547 2.12062 7.49579 2.31219 6.83531 2.69533L6.83197 2.69644L6.28844 3.01165L6.28287 3.0161C5.62797 3.39479 5.2994 3.58636 5.06328 3.85255C4.85286 4.08911 4.69529 4.36781 4.60106 4.67007C4.49525 5.012 4.50082 5.39292 4.51418 6.15475L4.52198 6.62699C4.52198 6.69939 4.52532 6.73503 4.52421 6.76955C4.51844 7.17422 4.40254 7.56966 4.18896 7.91341C4.1522 7.97578 4.1355 8.00697 4.11656 8.03593C3.92877 8.33907 3.67094 8.59269 3.36476 8.77548L3.24001 8.84565L2.83794 9.06841C2.16744 9.4393 1.83219 9.6253 1.58939 9.89038C1.37351 10.1241 1.21021 10.4013 1.11046 10.7034C0.999079 11.0454 0.99908 11.4274 1.00019 12.1937L1.00242 12.8207C1.00353 13.5815 1.00576 13.9613 1.11825 14.301C1.21759 14.6012 1.37971 14.8769 1.59384 15.1096C1.83665 15.3724 2.16855 15.5573 2.83348 15.9271L3.23222 16.1487C3.30016 16.1866 3.33469 16.2044 3.36699 16.2245C3.71602 16.4337 4.00107 16.7345 4.19119 17.0943L4.26581 17.228C4.45394 17.5832 4.54246 17.9827 4.52198 18.3841L4.51418 18.8374C4.50082 19.6015 4.49525 19.9846 4.60217 20.3265C4.69684 20.6295 4.855 20.9091 5.06662 21.1463C5.30497 21.4136 5.63688 21.6041 6.29847 21.9861L6.84868 22.3035C7.50915 22.6833 7.83883 22.8738 8.18967 22.9462C8.49965 23.0103 8.81973 23.0076 9.12859 22.9384C9.47832 22.8604 9.80466 22.6644 10.4585 22.2723L10.8527 22.0362L10.9786 21.9627C11.2882 21.7912 11.6335 21.6954 11.9888 21.6842L12.1336 21.6831H12.2784C12.6326 21.6943 12.9801 21.7912 13.2919 21.9638L13.3944 22.0251L13.8132 22.2768C14.4703 22.6711 14.7978 22.8671 15.1486 22.9451C15.4585 23.0152 15.7797 23.0182 16.0909 22.954C16.4417 22.8805 16.7736 22.6878 17.4341 22.3046L17.9854 21.985C18.6403 21.6041 18.9689 21.4136 19.205 21.1474C19.4166 20.9102 19.5726 20.6317 19.6672 20.3299C19.773 19.9902 19.7675 19.6126 19.7541 18.8619L19.7452 18.3718V18.2304C19.7504 17.8255 19.8659 17.4296 20.0793 17.0854L20.1517 16.9629C20.3395 16.6598 20.5973 16.4061 20.9035 16.2234L21.026 16.1554L21.0283 16.1543L21.4303 15.9315C22.1008 15.5595 22.4361 15.3747 22.68 15.1096C22.8961 14.8757 23.0587 14.5972 23.1578 14.2965C23.2692 13.9568 23.2692 13.5759 23.267 12.8185L23.2647 12.1792C23.2636 11.4185 23.2625 11.0376 23.15 10.6979C23.0502 10.3979 22.8877 10.1227 22.6733 9.89038C22.4316 9.62753 22.0997 9.44264 21.4359 9.07398L21.4337 9.07286Z" stroke="white" stroke-width="1.7" stroke-linecap="round" stroke-linejoin="round"/>
<path d="M7.67773 12.5001C7.67773 13.6816 8.14711 14.8148 8.98261 15.6503C9.81811 16.4858 10.9513 16.9552 12.1329 16.9552C13.3144 16.9552 14.4476 16.4858 15.2831 15.6503C16.1186 14.8148 16.588 13.6816 16.588 12.5001C16.588 11.3185 16.1186 10.1853 15.2831 9.3498C14.4476 8.5143 13.3144 8.04492 12.1329 8.04492C10.9513 8.04492 9.81811 8.5143 8.98261 9.3498C8.14711 10.1853 7.67773 11.3185 7.67773 12.5001Z" stroke="white" stroke-width="1.7" stroke-linecap="round" stroke-linejoin="round"/>
</g>
<defs>
<clipPath id="clip0_319_216">
<rect width="24" height="24" fill="white"/>
</clipPath>
</defs>
</svg>
